<svg width="857" height="643" xmlns="http://www.w3.org/2000/svg" xmlns:xlink="http://www.w3.org/1999/xlink" xml:space="preserve" overflow="hidden"><defs><clipPath id="clip0"><rect x="2358" y="535" width="857" height="643"/></clipPath></defs><g clip-path="url(#clip0)" transform="translate(-2358 -535)"><path d="M2358 642.167C2358 582.98 2405.96 535 2465.13 535L3107.88 535C3167.04 535 3215 582.98 3215 642.167L3215 1070.83C3215 1130.02 3167.04 1178 3107.88 1178L2465.13 1178C2405.96 1178 2358 1130.02 2358 1070.83ZM2465.13 588.583C2435.54 588.583 2411.56 612.571 2411.56 642.167L2411.56 653.795 2786.5 878.845 3161.44 653.795 3161.44 642.167C3161.44 612.571 3137.46 588.583 3107.88 588.583ZM3161.44 716.272 2909.26 867.644 3161.44 1022.88ZM3159.62 1084.71 2857.52 898.725 2786.5 941.322 2715.48 898.725 2413.38 1084.66C2419.64 1108.1 2440.87 1124.41 2465.13 1124.42L3107.88 1124.42C3132.12 1124.42 3153.34 1108.14 3159.62 1084.71M2411.56 1022.88 2663.74 867.644 2411.56 716.272Z" fill="#212529" fill-rule="evenodd" fill-opacity="0.85098"/></g></svg>