<svg width="977" height="977" xmlns="http://www.w3.org/2000/svg" xmlns:xlink="http://www.w3.org/1999/xlink" xml:space="preserve" overflow="hidden"><defs><clipPath id="clip0"><rect x="956" y="1144" width="977" height="977"/></clipPath></defs><g clip-path="url(#clip0)" transform="translate(-956 -1144)"><path d="M1933 1635.49C1933 1364.04 1714.3 1144 1444.56 1144 1174.7 1144.06 956 1364.04 956 1635.55 956 1880.81 1134.65 2084.12 1368.12 2121L1368.12 1777.57 1244.18 1777.57 1244.18 1635.55 1368.24 1635.55 1368.24 1527.18C1368.24 1404.03 1441.2 1336.02 1552.75 1336.02 1606.23 1336.02 1662.1 1345.61 1662.1 1345.61L1662.1 1466.49 1600.5 1466.49C1539.87 1466.49 1520.94 1504.41 1520.94 1543.3L1520.94 1635.49 1656.36 1635.49 1634.74 1777.5 1520.88 1777.5 1520.88 2120.94C1754.35 2084.06 1933 1880.75 1933 1635.49" fill="#212529" fill-rule="evenodd" fill-opacity="0.85098"/></g></svg>