<svg width="976" height="977" xmlns="http://www.w3.org/2000/svg" xmlns:xlink="http://www.w3.org/1999/xlink" xml:space="preserve" overflow="hidden"><defs><clipPath id="clip0"><rect x="903" y="28" width="976" height="977"/></clipPath></defs><g clip-path="url(#clip0)" transform="translate(-903 -28)"><path d="M1391 27.9998C1258.57 27.9998 1241.92 28.6089 1189.88 30.9296 1137.85 33.3721 1102.41 41.5586 1071.36 53.6429 1038.78 65.881 1009.27 85.1197 984.923 110.006 960.061 134.38 940.842 163.914 928.617 196.532 916.545 227.554 908.309 263.089 905.927 314.997 903.608 367.2 903 383.81 903 516.564 903 649.19 903.608 665.8 905.927 717.881 908.367 769.911 916.545 805.388 928.617 836.468 941.124 868.586 957.775 895.818 984.923 922.994 1012.01 950.169 1039.21 966.895 1071.3 979.357 1102.41 991.441 1137.79 999.686 1189.76 1002.07 1241.85 1004.39 1258.45 1005 1391 1005 1523.55 1005 1540.08 1004.39 1592.18 1002.07 1644.09 999.628 1679.65 991.441 1710.7 979.357 1743.26 967.113 1772.74 947.874 1797.08 922.994 1824.22 895.818 1840.88 868.586 1853.38 836.468 1865.4 805.388 1873.63 769.911 1876.07 717.881 1878.39 665.8 1879 649.19 1879 516.5 1879 383.81 1878.39 367.2 1876.07 315.055 1873.63 263.089 1865.4 227.554 1853.38 196.532 1841.16 163.914 1821.94 134.38 1797.08 110.006 1772.74 85.1197 1743.22 65.881 1710.64 53.6429 1679.53 41.5586 1644.03 33.3144 1592.12 30.9296 1540.03 28.6089 1523.49 27.9998 1390.88 27.9998ZM1347.27 116.052 1391.06 116.052C1521.36 116.052 1536.79 116.481 1588.21 118.86 1635.79 121.001 1661.65 128.995 1678.86 135.656 1701.61 144.509 1717.9 155.132 1734.98 172.229 1752.06 189.327 1762.61 205.572 1771.45 228.407 1778.17 245.568 1786.09 271.455 1788.23 319.087 1790.61 370.559 1791.1 386.009 1791.1 516.378 1791.1 646.747 1790.61 662.255 1788.23 713.734 1786.09 761.359 1778.11 787.188 1771.45 804.407 1763.58 825.595 1751.1 844.763 1734.92 860.527 1717.84 877.625 1701.61 888.19 1678.8 897.043 1661.72 903.761 1635.85 911.698 1588.21 913.897 1536.79 916.217 1521.36 916.762 1391.06 916.762 1260.76 916.762 1245.27 916.217 1193.85 913.897 1146.27 911.698 1120.47 903.761 1103.27 897.043 1082.09 889.183 1062.92 876.708 1047.15 860.527 1030.93 844.75 1018.43 825.563 1010.55 804.35 1003.89 787.188 995.906 761.301 993.767 713.669 991.448 662.197 990.962 646.747 990.962 516.256 990.962 385.765 991.448 370.437 993.767 318.965 995.963 271.333 1003.89 245.447 1010.6 228.221 1019.45 205.45 1030.07 189.141 1047.15 172.043 1064.23 154.946 1080.45 144.387 1103.27 135.534 1120.47 128.815 1146.27 120.879 1193.85 118.68 1238.87 116.603 1256.31 115.994 1347.27 115.93ZM1651.53 197.141C1619.19 197.141 1592.97 223.387 1592.97 255.761 1592.97 288.136 1619.19 314.381 1651.53 314.381 1683.87 314.381 1710.09 288.136 1710.09 255.761 1710.09 223.387 1683.87 197.141 1651.53 197.141M1391.06 265.653C1252.65 263.493 1138.69 374.059 1136.54 512.615 1134.37 651.171 1244.83 765.244 1383.24 767.404 1385.84 767.449 1388.46 767.449 1391.06 767.404 1529.48 765.244 1639.93 651.171 1637.77 512.615 1635.66 377.111 1526.43 267.769 1391.06 265.653M1391.06 353.647C1480.91 353.647 1553.75 426.557 1553.75 516.5 1553.75 606.443 1480.91 679.353 1391.06 679.353 1301.21 679.353 1228.37 606.443 1228.37 516.5 1228.37 426.557 1301.21 353.647 1391.06 353.647" fill="#212529" fill-rule="evenodd" fill-opacity="0.85098"/></g></svg>