<svg width="682" height="683" xmlns="http://www.w3.org/2000/svg" xmlns:xlink="http://www.w3.org/1999/xlink" xml:space="preserve" overflow="hidden"><defs><clipPath id="clip0"><rect x="2474" y="1296" width="682" height="683"/></clipPath></defs><g clip-path="url(#clip0)" transform="translate(-2474 -1296)"><path d="M2629.54 1353.53C2619.76 1340.95 2601.63 1338.68 2589.05 1348.46 2588.1 1349.2 2587.19 1350 2586.34 1350.85L2542.33 1394.9C2521.78 1415.5 2514.2 1444.66 2523.18 1470.24 2560.49 1576.09 2621.12 1672.21 2700.57 1751.49 2779.85 1830.94 2875.97 1891.57 2981.82 1928.88 3007.4 1937.86 3036.55 1930.29 3057.16 1909.73L3101.16 1865.72C3112.44 1854.46 3112.45 1836.19 3101.19 1824.91 3100.34 1824.06 3099.43 1823.26 3098.48 1822.52L3000.29 1746.17C2993.29 1740.75 2984.2 1738.84 2975.61 1740.97L2882.4 1764.25C2857.09 1770.54 2830.34 1763.13 2811.87 1744.72L2707.34 1640.14C2688.92 1621.68 2681.49 1594.94 2687.76 1569.62L2711.09 1476.41C2713.22 1467.82 2711.31 1458.73 2705.9 1451.72ZM2554.21 1318.76C2583.21 1289.75 2630.23 1289.74 2659.24 1318.74 2661.43 1320.93 2663.48 1323.26 2665.38 1325.7L2741.73 1423.84C2755.73 1441.85 2760.67 1465.3 2755.14 1487.43L2731.86 1580.64C2729.43 1590.46 2732.3 1600.84 2739.43 1608.01L2844 1712.58C2851.19 1719.73 2861.58 1722.61 2871.41 1720.16L2964.58 1696.88C2986.71 1691.38 3010.14 1696.32 3028.17 1710.29L3126.32 1786.64C3161.6 1814.09 3164.83 1866.23 3133.25 1897.77L3089.24 1941.78C3057.75 1973.28 3010.68 1987.11 2966.8 1971.66 2854.46 1932.19 2752.48 1867.88 2668.44 1783.53 2584.1 1699.51 2519.8 1597.54 2480.32 1485.22 2464.91 1441.38 2478.75 1394.26 2510.24 1362.77Z" fill="#212529" fill-rule="evenodd" fill-opacity="0.85098"/></g></svg>