<svg width="972" height="977" xmlns="http://www.w3.org/2000/svg" xmlns:xlink="http://www.w3.org/1999/xlink" xml:space="preserve" overflow="hidden"><defs><clipPath id="clip0"><rect x="2371" y="123" width="972" height="977"/></clipPath></defs><g clip-path="url(#clip0)" transform="translate(-2371 -123)"><path d="M3201 264.892C3110.59 173.644 2987.31 122.52 2858.83 123.006 2592.34 123.006 2375.15 340.038 2374.91 606.492 2374.91 691.827 2397.24 774.851 2439.41 848.352L2371 1099.01 2627.55 1031.78C2698.49 1070.47 2778.02 1090.71 2858.83 1090.65L2859.08 1090.65C3125.63 1090.65 3342.76 873.611 3343 606.914 3343.11 478.542 3291.97 355.434 3200.94 264.892ZM2858.83 1008.78C2786.77 1008.73 2716.04 989.347 2654.03 952.664L2639.39 943.878 2487.19 983.776 2527.83 835.358 2518.31 820.052C2478.03 756.017 2456.72 681.888 2456.86 606.248 2456.86 385.06 2637.31 204.622 2859.08 204.622 2965.78 204.429 3068.15 246.832 3143.45 322.414 3218.99 397.708 3261.35 500.034 3261.11 606.671 3260.86 828.653 3080.41 1008.78 2858.83 1008.78M3079.44 707.812C3067.41 701.773 3008.03 672.551 2996.87 668.407 2985.76 664.437 2977.65 662.368 2969.71 674.446 2961.6 686.461 2938.4 713.851 2931.45 721.716 2924.5 729.83 2917.29 730.746 2905.21 724.771 2893.19 718.667 2854.19 705.981 2808.06 664.686 2772.05 632.659 2747.95 593.011 2740.75 580.99 2733.79 568.912 2740.08 562.45 2746.12 556.411 2751.43 551.038 2758.14 542.257 2764.18 535.302 2770.28 528.347 2772.3 523.224 2776.27 515.174 2780.23 506.996 2778.34 500.047 2775.35 494.008 2772.3 487.969 2748.19 428.371 2738 404.337 2728.24 380.609 2718.29 383.901 2710.85 383.593 2703.89 383.171 2695.77 383.171 2687.66 383.171 2675.27 383.484 2663.57 388.941 2655.38 398.233 2644.27 410.312 2613.21 439.534 2613.21 499.131 2613.21 558.729 2656.53 616.008 2662.64 624.116 2668.61 632.23 2747.71 754.172 2869.08 806.629 2897.77 819.136 2920.34 826.514 2937.98 832.131 2966.97 841.397 2993.14 839.995 3014.02 837.011 3037.2 833.469 3085.48 807.731 3095.67 779.488 3105.67 751.182 3105.67 727.025 3102.62 721.966 3099.63 716.836 3091.52 713.851 3079.44 707.812" fill="#212529" fill-rule="evenodd" fill-opacity="0.85098"/></g></svg>